# xmcd
#
# Track frame offsets: 
#        150
#        14180
#        29457
#        44845
#        58965
#        71635
#        85067
#        96520
#        107842
#        118797
#        131820
#        143195
#        156667
#        168310
#        181642
#        195682
#        210567
#        221877
#
# Disc length: 3109 seconds
#
# Revision: 0
# Processed by: cddbd v1.5.2PL0 Copyright (c) Steve Scherf et al.
# Submitted via: ExactAudioCopy v0.95b4
#
DISCID=220c2312
DTITLE=Johnnie Temple - The Blues, from Mississippi to Chicago 1935-19
DTITLE=40 CD1÷2
DYEAR=1997
DGENRE=Blues
TTITLE0=Lead pencil blues
TTITLE1=Jacksonville blues
TTITLE2=Big boat whistle
TTITLE3=The evil Devil blues
TTITLE4=New Vicksburg blues
TTITLE5=Louise Louise blues
TTITLE6=Snapping cat
TTITLE7=New Louise Louise blues
TTITLE8=Peeping through the keyhole
TTITLE9=Pimple blues
TTITLE10=East Saint Louis blues
TTITLE11=Hoodoo women
TTITLE12=Mama's bad luck child
TTITLE13=Mean baby blues
TTITLE14=Every dog must have his day
TTITLE15=Fare you well
TTITLE16=Stavin' chain
TTITLE17=County jail blues
EXTD=
EXTT0=
EXTT1=
EXTT2=
EXTT3=
EXTT4=
EXTT5=
EXTT6=
EXTT7=
EXTT8=
EXTT9=
EXTT10=
EXTT11=
EXTT12=
EXTT13=
EXTT14=
EXTT15=
EXTT16=
EXTT17=
PLAYORDER=
